<svg width="193" height="81" viewBox="0 0 193 81" fill="none" xmlns="http://www.w3.org/2000/svg">
<path d="M151.545 52.9411H162.267C162.796 52.9411 162.962 52.2273 162.488 51.9929L161.595 51.551L159.749 49.9971C159.524 49.8071 159.393 49.5272 159.393 49.2322V31.3939L160.668 30.3513L161.204 29.3178C161.452 28.8383 160.869 28.3598 160.447 28.6972L159.393 29.5404H158.351V25.8334L159.393 24.3274L159.847 23.5171C160.132 23.0098 159.467 22.5079 159.057 22.92L158.317 23.6629C157.945 24.0366 157.347 24.0572 156.95 23.7099L156.729 23.5165L156.473 23.1112C156.184 22.652 155.481 23.014 155.686 23.5165V29.5404H154.528L151.18 26.99C150.991 26.8456 150.755 27.097 150.91 27.2772L153.833 31.3939V34.893L151.392 31.9696C151.232 31.7774 150.919 31.8909 150.919 32.1413C150.919 32.2101 150.935 32.278 150.965 32.3396L153.138 36.7228L154.528 38.1129V49.7611C154.528 50.1468 154.306 50.4982 153.958 50.664L152.095 51.551L151.297 52.007C150.852 52.2614 151.033 52.9411 151.545 52.9411Z" fill="#047B04" stroke="#047B04"/>
<path d="M145.096 29.1913L146.107 28.0122C146.158 27.9529 146.232 27.9187 146.31 27.9187C146.568 27.9187 146.677 27.591 146.471 27.4366L145.029 26.3548C144.878 26.242 144.695 26.181 144.507 26.181H141.7C141.456 26.181 141.221 26.27 141.038 26.4312L140.447 26.953C139.92 27.418 140.024 28.2671 140.648 28.5906L142.264 29.4283C142.406 29.502 142.564 29.5405 142.724 29.5405H144.337C144.629 29.5405 144.906 29.413 145.096 29.1913Z" fill="#047B04" stroke="#047B04"/>
<path d="M154.233 19.6179L155.326 19.5454C155.393 19.541 155.458 19.5684 155.501 19.6195C155.629 19.7693 155.875 19.6795 155.876 19.4825L155.882 18.0858C155.883 17.9104 155.821 17.7404 155.707 17.607L154.503 16.1966C154.329 15.993 154.081 15.8676 153.814 15.8486L153.453 15.8228C152.806 15.7766 152.287 16.3491 152.396 16.9886L152.584 18.0893C152.614 18.267 152.692 18.4332 152.809 18.5704L153.406 19.2695C153.611 19.5097 153.918 19.6388 154.233 19.6179Z" fill="#047B04" stroke="#047B04"/>
<path d="M156.645 8.95505L155.518 10.4571C155.131 10.9734 154.363 10.9931 153.95 10.4972L152.675 8.96652C152.525 8.7868 152.443 8.56027 152.443 8.32633V3.86912C152.443 3.67604 152.499 3.48709 152.604 3.32508L153.821 1.44817C154.239 0.803406 155.198 0.8515 155.549 1.53487L156.734 3.8393C156.807 3.98078 156.845 4.13757 156.845 4.29665V8.35505C156.845 8.57142 156.775 8.78195 156.645 8.95505Z" fill="#047B04"/>
<path d="M145.376 11.0545V8.66985C145.376 7.77894 146.453 7.33278 147.083 7.96274L148.62 9.4993L150 11.3044C150.083 11.4128 150.143 11.5369 150.176 11.6693L150.626 13.4698C150.784 14.1009 150.307 14.7123 149.656 14.7123H149.034C148.769 14.7123 148.515 14.607 148.327 14.4194L145.669 11.7616C145.482 11.574 145.376 11.3197 145.376 11.0545Z" fill="#047B04"/>
<path d="M141.352 23.7482H143.294C143.976 23.7482 144.458 23.0795 144.242 22.432L144.061 21.887C144.012 21.7397 143.929 21.6059 143.819 21.4961L141.383 19.0598C141.195 18.8723 140.941 18.7669 140.676 18.7669H137.564C137.444 18.7669 137.325 18.7885 137.213 18.8306L136.855 18.9647C136.209 19.2073 135.997 20.0169 136.442 20.5452L137.266 21.5244C137.343 21.6161 137.436 21.6931 137.541 21.7519L140.862 23.6198C141.011 23.704 141.18 23.7482 141.352 23.7482Z" fill="#047B04"/>
<path d="M150.937 21.2201V22.4042C150.937 23.0741 150.291 23.5545 149.649 23.362L148.945 23.1506C148.734 23.0874 148.55 22.9566 148.421 22.7783L147.303 21.2301C147.18 21.0597 147.114 20.8548 147.114 20.6446V19.574C147.114 18.8306 147.896 18.3471 148.561 18.6796L149.843 19.3204C150.027 19.4125 150.178 19.5593 150.276 19.7407L150.817 20.746C150.896 20.8917 150.937 21.0546 150.937 21.2201Z" fill="#047B04"/>
<path d="M165.891 16.1537L164.325 16.5149C163.699 16.6595 163.101 16.1836 163.101 15.5405V13.2414C163.101 12.9951 163.192 12.7574 163.356 12.5739L165.936 9.69663C166.052 9.56731 166.199 9.47041 166.364 9.41549L167.229 9.12713C167.877 8.91128 168.545 9.39325 168.545 10.0758V12.6775C168.545 12.7974 168.524 12.9163 168.482 13.0286L167.947 14.4546C167.884 14.6233 167.776 14.7717 167.635 14.8843L166.29 15.9602C166.173 16.0538 166.037 16.12 165.891 16.1537Z" fill="#047B04"/>
<path d="M168.325 25.2524L167.753 24.9474C167.242 24.6748 167.068 24.0262 167.375 23.535L168.379 21.9287C168.487 21.7558 168.646 21.62 168.833 21.5396L169.978 21.0488C170.103 20.9955 170.237 20.968 170.372 20.968H173.153C173.462 20.968 173.753 21.1104 173.943 21.354L174.614 22.2173C174.967 22.671 174.866 23.3281 174.393 23.6544L172.161 25.1933C171.994 25.3084 171.796 25.3701 171.593 25.3701H168.795C168.631 25.3701 168.47 25.3297 168.325 25.2524Z" fill="#047B04"/>
<path d="M144.496 16.5956L144.361 16.9563C144.158 17.4975 143.54 17.7545 143.013 17.5166L140.882 16.5541C140.578 16.4167 140.362 16.1364 140.307 15.8071L140.076 14.4194C139.955 13.6948 140.631 13.0916 141.337 13.2934L142.718 13.6881C142.939 13.7512 143.131 13.8882 143.263 14.0762L144.379 15.671C144.568 15.9411 144.612 16.2869 144.496 16.5956Z" fill="#047B04"/>
<path d="M159.542 16.3986L159.04 16.8709C158.505 17.3746 157.628 17.1483 157.403 16.4487L156.979 15.128C156.893 14.863 156.923 14.5744 157.059 14.3318L157.848 12.9297C157.874 12.8825 157.905 12.8376 157.938 12.7953L157.966 12.761C158.492 12.1036 159.545 12.3506 159.724 13.1733L159.834 13.6806C159.849 13.7504 159.857 13.8216 159.857 13.893V15.6704C159.857 15.9461 159.743 16.2096 159.542 16.3986Z" fill="#047B04"/>
<path d="M172.506 16.3297L171.539 17.3777C171.401 17.5273 171.217 17.6266 171.016 17.6601C170.277 17.7832 169.71 17.0161 170.045 16.3461L170.066 16.3054C170.132 16.172 170.23 16.0564 170.35 15.9682L171.457 15.1556C171.979 14.772 172.716 15.1451 172.716 15.7932C172.716 15.9921 172.641 16.1836 172.506 16.3297Z" fill="#047B04"/>
<path d="M165.884 31.0762L164.63 29.9669C164.007 29.4158 164.29 28.3894 165.107 28.2352L166.479 27.9765C166.692 27.9362 166.913 27.9665 167.108 28.0628L168.957 28.9777C169.142 29.0688 169.293 29.2144 169.392 29.3948L169.576 29.7322C169.88 30.2899 169.594 30.9866 168.986 31.1693L168.056 31.448C167.92 31.4888 167.777 31.5002 167.637 31.4814L166.415 31.3185C166.218 31.2922 166.033 31.2079 165.884 31.0762Z" fill="#047B04"/>
<path d="M164.988 22.4241L164.417 22.6144C163.769 22.8303 163.101 22.3483 163.101 21.6658V21.3343C163.101 21.0978 163.184 20.8689 163.337 20.6883L164.075 19.816C164.265 19.5915 164.545 19.462 164.839 19.462H164.883C165.517 19.462 165.991 20.045 165.862 20.6659L165.651 21.6794C165.578 22.0279 165.326 22.3115 164.988 22.4241Z" fill="#047B04"/>
<path d="M162.787 7.8259L162.702 7.90638C162.064 8.50868 161.015 8.05656 161.015 7.17936V6.79082C161.015 6.45647 161.182 6.14423 161.461 5.95877L161.546 5.90196C162.21 5.45892 163.101 5.93532 163.101 6.73401V7.09889C163.101 7.37401 162.987 7.63699 162.787 7.8259Z" fill="#047B04"/>
<path d="M148.918 32.1559L149.094 31.9605C149.579 31.4222 149.348 30.563 148.659 30.3398L147.724 30.0372C147.352 29.9168 146.944 30.0241 146.68 30.3119L146.222 30.81C145.633 31.4511 146.088 32.4867 146.958 32.4867H148.175C148.458 32.4867 148.728 32.3665 148.918 32.1559Z" fill="#047B04"/>
<path d="M156.645 8.95505L155.518 10.4571C155.131 10.9734 154.363 10.9931 153.95 10.4972L152.675 8.96652C152.525 8.7868 152.443 8.56027 152.443 8.32633V3.86912C152.443 3.67604 152.499 3.48709 152.604 3.32508L153.821 1.44817C154.239 0.803406 155.198 0.8515 155.549 1.53487L156.734 3.8393C156.807 3.98078 156.845 4.13757 156.845 4.29665V8.35505C156.845 8.57142 156.775 8.78195 156.645 8.95505Z" stroke="#047B04"/>
<path d="M145.376 11.0545V8.66985C145.376 7.77894 146.453 7.33278 147.083 7.96274L148.62 9.4993L150 11.3044C150.083 11.4128 150.143 11.5369 150.176 11.6693L150.626 13.4698C150.784 14.1009 150.307 14.7123 149.656 14.7123H149.034C148.769 14.7123 148.515 14.607 148.327 14.4194L145.669 11.7616C145.482 11.574 145.376 11.3197 145.376 11.0545Z" stroke="#047B04"/>
<path d="M141.352 23.7482H143.294C143.976 23.7482 144.458 23.0795 144.242 22.432L144.061 21.887C144.012 21.7397 143.929 21.6059 143.819 21.4961L141.383 19.0598C141.195 18.8723 140.941 18.7669 140.676 18.7669H137.564C137.444 18.7669 137.325 18.7885 137.213 18.8306L136.855 18.9647C136.209 19.2073 135.997 20.0169 136.442 20.5452L137.266 21.5244C137.343 21.6161 137.436 21.6931 137.541 21.7519L140.862 23.6198C141.011 23.704 141.18 23.7482 141.352 23.7482Z" stroke="#047B04"/>
<path d="M150.937 21.2201V22.4042C150.937 23.0741 150.291 23.5545 149.649 23.362L148.945 23.1506C148.734 23.0874 148.55 22.9566 148.421 22.7783L147.303 21.2301C147.18 21.0597 147.114 20.8548 147.114 20.6446V19.574C147.114 18.8306 147.896 18.3471 148.561 18.6796L149.843 19.3204C150.027 19.4125 150.178 19.5593 150.276 19.7407L150.817 20.746C150.896 20.8917 150.937 21.0546 150.937 21.2201Z" stroke="#047B04"/>
<path d="M165.891 16.1537L164.325 16.5149C163.699 16.6595 163.101 16.1836 163.101 15.5405V13.2414C163.101 12.9951 163.192 12.7574 163.356 12.5739L165.936 9.69663C166.052 9.56731 166.199 9.47041 166.364 9.41549L167.229 9.12713C167.877 8.91128 168.545 9.39325 168.545 10.0758V12.6775C168.545 12.7974 168.524 12.9163 168.482 13.0286L167.947 14.4546C167.884 14.6233 167.776 14.7717 167.635 14.8843L166.29 15.9602C166.173 16.0538 166.037 16.12 165.891 16.1537Z" stroke="#047B04"/>
<path d="M168.325 25.2524L167.753 24.9474C167.242 24.6748 167.068 24.0262 167.375 23.535L168.379 21.9287C168.487 21.7558 168.646 21.62 168.833 21.5396L169.978 21.0488C170.103 20.9955 170.237 20.968 170.372 20.968H173.153C173.462 20.968 173.753 21.1104 173.943 21.354L174.614 22.2173C174.967 22.671 174.866 23.3281 174.393 23.6544L172.161 25.1933C171.994 25.3084 171.796 25.3701 171.593 25.3701H168.795C168.631 25.3701 168.47 25.3297 168.325 25.2524Z" stroke="#047B04"/>
<path d="M144.496 16.5956L144.361 16.9563C144.158 17.4975 143.54 17.7545 143.013 17.5166L140.882 16.5541C140.578 16.4167 140.362 16.1364 140.307 15.8071L140.076 14.4194C139.955 13.6948 140.631 13.0916 141.337 13.2934L142.718 13.6881C142.939 13.7512 143.131 13.8882 143.263 14.0762L144.379 15.671C144.568 15.9411 144.612 16.2869 144.496 16.5956Z" stroke="#047B04"/>
<path d="M159.542 16.3986L159.04 16.8709C158.505 17.3746 157.628 17.1483 157.403 16.4487L156.979 15.128C156.893 14.863 156.923 14.5744 157.059 14.3318L157.848 12.9297C157.874 12.8825 157.905 12.8376 157.938 12.7953L157.966 12.761C158.492 12.1036 159.545 12.3506 159.724 13.1733L159.834 13.6806C159.849 13.7504 159.857 13.8216 159.857 13.893V15.6704C159.857 15.9461 159.743 16.2096 159.542 16.3986Z" stroke="#047B04"/>
<path d="M172.506 16.3297L171.539 17.3777C171.401 17.5273 171.217 17.6266 171.016 17.6601C170.277 17.7832 169.71 17.0161 170.045 16.3461L170.066 16.3054C170.132 16.172 170.23 16.0564 170.35 15.9682L171.457 15.1556C171.979 14.772 172.716 15.1451 172.716 15.7932C172.716 15.9921 172.641 16.1836 172.506 16.3297Z" stroke="#047B04"/>
<path d="M165.884 31.0762L164.63 29.9669C164.007 29.4158 164.29 28.3894 165.107 28.2352L166.479 27.9765C166.692 27.9362 166.913 27.9665 167.108 28.0628L168.957 28.9777C169.142 29.0688 169.293 29.2144 169.392 29.3948L169.576 29.7322C169.88 30.2899 169.594 30.9866 168.986 31.1693L168.056 31.448C167.92 31.4888 167.777 31.5002 167.637 31.4814L166.415 31.3185C166.218 31.2922 166.033 31.2079 165.884 31.0762Z" stroke="#047B04"/>
<path d="M164.988 22.4241L164.417 22.6144C163.769 22.8303 163.101 22.3483 163.101 21.6658V21.3343C163.101 21.0978 163.184 20.8689 163.337 20.6883L164.075 19.816C164.265 19.5915 164.545 19.462 164.839 19.462H164.883C165.517 19.462 165.991 20.045 165.862 20.6659L165.651 21.6794C165.578 22.0279 165.326 22.3115 164.988 22.4241Z" stroke="#047B04"/>
<path d="M162.787 7.8259L162.702 7.90638C162.064 8.50868 161.015 8.05656 161.015 7.17936V6.79082C161.015 6.45647 161.182 6.14423 161.461 5.95877L161.546 5.90196C162.21 5.45892 163.101 5.93532 163.101 6.73401V7.09889C163.101 7.37401 162.987 7.63699 162.787 7.8259Z" stroke="#047B04"/>
<path d="M148.918 32.1559L149.094 31.9605C149.579 31.4222 149.348 30.563 148.659 30.3398L147.724 30.0372C147.352 29.9168 146.944 30.0241 146.68 30.3119L146.222 30.81C145.633 31.4511 146.088 32.4867 146.958 32.4867H148.175C148.458 32.4867 148.728 32.3665 148.918 32.1559Z" stroke="#047B04"/>
<path d="M52.4435 40.5052H36.4341V41.0294C36.4341 44.1105 37.2282 46.5723 38.8165 48.4146C40.4365 50.2252 42.5965 51.1305 45.2965 51.1305C46.5353 51.1305 47.8059 50.9558 49.1082 50.6064C50.4424 50.257 51.5224 49.8599 52.3482 49.4152C52.6024 49.6693 52.793 49.9552 52.92 50.2729C53.0471 50.5588 53.1265 50.8605 53.1582 51.1782C50.5218 52.6711 47.7582 53.4176 44.8677 53.4176C42.6441 53.4176 40.7065 52.9093 39.0547 51.8929C37.4029 50.8446 36.1165 49.3993 35.1953 47.557C34.2741 45.6829 33.8135 43.507 33.8135 41.0294C33.8135 38.5199 34.2424 36.3441 35.1 34.5017C35.9894 32.6276 37.2441 31.1823 38.8641 30.1658C40.4841 29.1493 42.39 28.6411 44.5818 28.6411C50.4265 28.6411 53.3488 32.1193 53.3488 39.0758C53.0947 39.6158 52.793 40.0923 52.4435 40.5052ZM36.6247 38.4564H50.8235C50.8235 33.3105 48.743 30.7376 44.5818 30.7376C42.4853 30.7376 40.7224 31.4364 39.2929 32.8341C37.8953 34.2317 37.0059 36.1058 36.6247 38.4564Z" fill="black"/>
<path d="M86.1799 52.9411H76.984C76.8887 52.687 76.8411 52.4646 76.8411 52.2741C76.8411 52.0199 76.9364 51.7182 77.127 51.3688L80.367 50.9876V37.4558C80.367 32.977 78.477 30.7376 74.6969 30.7376C73.204 30.7376 71.8222 31.1823 70.5517 32.0717C69.3128 32.9293 68.3122 34.0888 67.5499 35.5499C66.7875 36.9794 66.4064 38.5517 66.4064 40.267V50.8923H69.1699C69.6781 50.8923 69.9322 51.1146 69.9322 51.5593C69.9322 51.7499 69.8687 52.0835 69.7417 52.5599L69.6464 52.9411H60.4505C60.3552 52.687 60.3075 52.4646 60.3075 52.2741C60.3075 52.0199 60.4028 51.7182 60.5934 51.3688L63.8334 50.9876V31.357H60.2122C60.1169 31.1346 60.0693 30.9123 60.0693 30.6899C60.0693 30.4041 60.1646 30.1023 60.3552 29.7846L65.0722 28.8794C65.6122 29.1652 66.0569 29.5146 66.4064 29.9276L66.0728 34.6923C66.9622 32.7546 68.1852 31.2617 69.7417 30.2135C71.2981 29.1652 73.0928 28.6411 75.1258 28.6411C77.667 28.6411 79.6046 29.4035 80.9387 30.9282C82.2728 32.4211 82.9399 34.597 82.9399 37.4558V50.8923H85.7034C86.2117 50.8923 86.4658 51.1146 86.4658 51.5593C86.4658 51.7499 86.4022 52.0835 86.2752 52.5599L86.1799 52.9411Z" fill="black"/>
<path d="M111.252 40.5052H95.2429V41.0294C95.2429 44.1105 96.037 46.5723 97.6252 48.4146C99.2452 50.2252 101.405 51.1305 104.105 51.1305C105.344 51.1305 106.615 50.9558 107.917 50.6064C109.251 50.257 110.331 49.8599 111.157 49.4152C111.411 49.6693 111.602 49.9552 111.729 50.2729C111.856 50.5588 111.935 50.8605 111.967 51.1782C109.331 52.6711 106.567 53.4176 103.676 53.4176C101.453 53.4176 99.5152 52.9093 97.8635 51.8929C96.2117 50.8446 94.9252 49.3993 94.0041 47.557C93.0829 45.6829 92.6223 43.507 92.6223 41.0294C92.6223 38.5199 93.0511 36.3441 93.9088 34.5017C94.7982 32.6276 96.0529 31.1823 97.6729 30.1658C99.2929 29.1493 101.199 28.6411 103.391 28.6411C109.235 28.6411 112.158 32.1193 112.158 39.0758C111.903 39.6158 111.602 40.0923 111.252 40.5052ZM95.4335 38.4564H109.632C109.632 33.3105 107.552 30.7376 103.391 30.7376C101.294 30.7376 99.5311 31.4364 98.1017 32.8341C96.7041 34.2317 95.8146 36.1058 95.4335 38.4564Z" fill="black"/>
<path d="M120.069 50.4158L119.974 45.2223C120.196 45.127 120.435 45.0793 120.689 45.0793C121.006 45.0793 121.308 45.1746 121.594 45.3652L122.595 50.2729C124.151 50.9717 125.946 51.3211 127.979 51.3211C129.948 51.3211 131.505 50.9082 132.648 50.0823C133.792 49.2564 134.363 48.1446 134.363 46.747C134.363 45.6035 133.919 44.6346 133.029 43.8405C132.172 43.0464 130.806 42.3793 128.932 41.8393C126.803 41.2358 125.12 40.6164 123.881 39.9811C122.642 39.3141 121.753 38.5676 121.213 37.7417C120.705 36.8841 120.45 35.8676 120.45 34.6923C120.45 32.8182 121.165 31.3411 122.595 30.2611C124.056 29.1811 126.041 28.6411 128.55 28.6411C129.694 28.6411 130.869 28.7523 132.076 28.9746C133.315 29.197 134.236 29.4829 134.84 29.8323C135.189 30.2452 135.491 30.7217 135.745 31.2617L135.84 35.9788C135.586 36.0741 135.348 36.1217 135.126 36.1217C134.808 36.1217 134.506 36.0264 134.22 35.8358L133.22 31.4523C131.854 30.9441 130.345 30.6899 128.693 30.6899C124.913 30.6899 123.023 32.0241 123.023 34.6923C123.023 35.4229 123.198 36.0582 123.547 36.5982C123.929 37.1064 124.58 37.5829 125.501 38.0276C126.422 38.4723 127.693 38.9488 129.313 39.457C131.981 40.2511 133.919 41.2358 135.126 42.4111C136.365 43.5546 136.984 44.9999 136.984 46.747C136.984 48.8117 136.19 50.4476 134.602 51.6546C133.013 52.8299 130.806 53.4176 127.979 53.4176C126.645 53.4176 125.342 53.2746 124.072 52.9888C122.833 52.7029 121.8 52.3217 120.975 51.8452C120.625 51.4323 120.323 50.9558 120.069 50.4158Z" fill="black"/>
<path d="M174.711 50.4158L174.615 45.2223C174.838 45.127 175.076 45.0793 175.33 45.0793C175.648 45.0793 175.95 45.1746 176.235 45.3652L177.236 50.2729C178.793 50.9717 180.587 51.3211 182.62 51.3211C184.59 51.3211 186.146 50.9082 187.29 50.0823C188.433 49.2564 189.005 48.1446 189.005 46.747C189.005 45.6035 188.56 44.6346 187.671 43.8405C186.813 43.0464 185.447 42.3793 183.573 41.8393C181.445 41.2358 179.761 40.6164 178.523 39.9811C177.284 39.3141 176.394 38.5676 175.854 37.7417C175.346 36.8841 175.092 35.8676 175.092 34.6923C175.092 32.8182 175.807 31.3411 177.236 30.2611C178.697 29.1811 180.683 28.6411 183.192 28.6411C184.335 28.6411 185.511 28.7523 186.718 28.9746C187.957 29.197 188.878 29.4829 189.481 29.8323C189.831 30.2452 190.133 30.7217 190.387 31.2617L190.482 35.9788C190.228 36.0741 189.99 36.1217 189.767 36.1217C189.45 36.1217 189.148 36.0264 188.862 35.8358L187.861 31.4523C186.495 30.9441 184.987 30.6899 183.335 30.6899C179.555 30.6899 177.665 32.0241 177.665 34.6923C177.665 35.4229 177.84 36.0582 178.189 36.5982C178.57 37.1064 179.221 37.5829 180.143 38.0276C181.064 38.4723 182.334 38.9488 183.954 39.457C186.623 40.2511 188.56 41.2358 189.767 42.4111C191.006 43.5546 191.625 44.9999 191.625 46.747C191.625 48.8117 190.831 50.4476 189.243 51.6546C187.655 52.8299 185.447 53.4176 182.62 53.4176C181.286 53.4176 179.984 53.2746 178.713 52.9888C177.474 52.7029 176.442 52.3217 175.616 51.8452C175.267 51.4323 174.965 50.9558 174.711 50.4158Z" fill="black"/>
<mask id="path-6-outside-1" maskUnits="userSpaceOnUse" x="34.0206" y="60.0146" width="159" height="20" fill="black">
<rect fill="white" x="34.0206" y="60.0146" width="159" height="20"/>
<path d="M45.3706 71.9735H36.4765V72.2646C36.4765 73.9764 36.9176 75.3441 37.8 76.3676C38.7 77.3735 39.9 77.8764 41.4 77.8764C42.0882 77.8764 42.7941 77.7794 43.5176 77.5852C44.2588 77.3911 44.8588 77.1705 45.3176 76.9235C45.4588 77.0646 45.5647 77.2235 45.6353 77.3999C45.7059 77.5588 45.75 77.7264 45.7676 77.9029C44.3029 78.7323 42.7676 79.147 41.1617 79.147C39.9265 79.147 38.85 78.8646 37.9323 78.2999C37.0147 77.7176 36.3 76.9146 35.7882 75.8911C35.2765 74.8499 35.0206 73.6411 35.0206 72.2646C35.0206 70.8705 35.2588 69.6617 35.7353 68.6382C36.2294 67.597 36.9265 66.7941 37.8265 66.2294C38.7265 65.6646 39.7853 65.3823 41.0029 65.3823C44.25 65.3823 45.8735 67.3146 45.8735 71.1794C45.7323 71.4794 45.5647 71.7441 45.3706 71.9735ZM36.5823 70.8352H44.4706C44.4706 67.9764 43.3147 66.547 41.0029 66.547C39.8382 66.547 38.8588 66.9352 38.0647 67.7117C37.2882 68.4882 36.7941 69.5294 36.5823 70.8352Z"/>
<path d="M66.5483 78.5117L63.9277 79.0146C63.6277 78.8558 63.3806 78.6617 63.1865 78.4323L63.3718 75.8382C62.913 76.8441 62.2512 77.647 61.3865 78.247C60.5218 78.847 59.5689 79.147 58.5277 79.147C57.4865 79.147 56.5689 78.8646 55.7747 78.2999C54.9806 77.7176 54.3542 76.9235 53.8953 75.9176C53.4542 74.8941 53.2336 73.7205 53.2336 72.397C53.2336 70.9852 53.4895 69.7588 54.0012 68.7176C54.513 67.6588 55.2365 66.8382 56.1718 66.2558C57.1071 65.6735 58.2012 65.3823 59.4542 65.3823C60.8306 65.3823 62.0748 65.8411 63.1865 66.7588V62.3911H61.0424C60.9895 62.2676 60.963 62.1441 60.963 62.0205C60.963 61.8617 61.0159 61.6941 61.1218 61.5176L63.8748 61.0146C64.1747 61.1735 64.4218 61.3676 64.6159 61.597V77.6382H66.6277C66.6806 77.7617 66.7071 77.8852 66.7071 78.0088C66.7071 78.1676 66.6542 78.3352 66.5483 78.5117ZM63.1865 72.6882V68.1088C62.0042 67.0852 60.76 66.5735 59.4542 66.5735C58.0071 66.5735 56.86 67.0941 56.013 68.1352C55.1659 69.1764 54.7424 70.597 54.7424 72.397C54.7424 73.4911 54.91 74.4617 55.2453 75.3088C55.5806 76.1382 56.0395 76.7911 56.6218 77.2676C57.2042 77.7441 57.8836 77.9823 58.66 77.9823C59.4718 77.9823 60.2218 77.7441 60.91 77.2676C61.5983 76.7735 62.1453 76.1294 62.5512 75.3352C62.9748 74.5235 63.1865 73.6411 63.1865 72.6882Z"/>
<path d="M87.616 78.5117L84.9954 79.0146C84.6954 78.8558 84.4483 78.6617 84.2542 78.4323L84.4395 75.7852C83.9454 76.8617 83.266 77.6911 82.4013 78.2735C81.5542 78.8558 80.5836 79.147 79.4895 79.147C78.166 79.147 77.1424 78.7235 76.4189 77.8764C75.6954 77.0294 75.3336 75.8205 75.3336 74.2499V66.8911H73.3219C73.2689 66.7676 73.2424 66.6441 73.2424 66.5205C73.2424 66.3617 73.2954 66.1941 73.4013 66.0176L76.0219 65.5146C76.3219 65.6735 76.5689 65.8676 76.763 66.097V74.2499C76.763 75.4323 77.0189 76.3499 77.5307 77.0029C78.0424 77.6558 78.7571 77.9823 79.6748 77.9823C80.4866 77.9823 81.2366 77.7441 81.9248 77.2676C82.6307 76.7735 83.1954 76.1294 83.6189 75.3352C84.0424 74.5235 84.2542 73.6411 84.2542 72.6882V66.8911H82.2424C82.1895 66.7676 82.163 66.6441 82.163 66.5205C82.163 66.3617 82.216 66.1941 82.3219 66.0176L84.9424 65.5146C85.2424 65.6735 85.4895 65.8676 85.6836 66.097V77.6382H87.6954C87.7483 77.7617 87.7748 77.8852 87.7748 78.0088C87.7748 78.1676 87.7219 78.3352 87.616 78.5117Z"/>
<path d="M104.251 69.8294L103.642 67.0235C102.884 66.7235 102.01 66.5735 101.022 66.5735C100.104 66.5735 99.3013 66.8205 98.6131 67.3146C97.9248 67.7911 97.3866 68.4529 96.9983 69.2999C96.6101 70.147 96.416 71.1352 96.416 72.2646C96.416 73.9941 96.8572 75.3617 97.7395 76.3676C98.6219 77.3735 99.8042 77.8764 101.287 77.8764C101.904 77.8764 102.548 77.8058 103.219 77.6646C103.89 77.5235 104.454 77.3294 104.913 77.0823C105.037 77.2235 105.134 77.3823 105.204 77.5588C105.275 77.7176 105.328 77.8852 105.363 78.0617C104.728 78.397 104.04 78.6617 103.298 78.8558C102.557 79.0499 101.807 79.147 101.048 79.147C99.813 79.147 98.7366 78.8646 97.8189 78.2999C96.9013 77.7176 96.1866 76.9146 95.6748 75.8911C95.1631 74.8499 94.9072 73.6411 94.9072 72.2646C94.9072 70.8882 95.1631 69.6882 95.6748 68.6646C96.1866 67.6235 96.8925 66.8205 97.7925 66.2558C98.7101 65.6735 99.7866 65.3823 101.022 65.3823C101.622 65.3823 102.257 65.4529 102.928 65.5941C103.598 65.7176 104.154 65.8852 104.595 66.097C104.79 66.3264 104.957 66.5911 105.098 66.8911L105.151 69.9088C105.01 69.9617 104.878 69.9882 104.754 69.9882C104.578 69.9882 104.41 69.9352 104.251 69.8294Z"/>
<path d="M124.594 78.5117L121.974 79.0146C121.674 78.8558 121.427 78.6617 121.233 78.4323L121.365 76.5264C120.8 77.3558 120.103 77.9999 119.274 78.4588C118.462 78.9176 117.562 79.147 116.574 79.147C115.356 79.147 114.368 78.8029 113.609 78.1146C112.868 77.4264 112.497 76.5352 112.497 75.4411C112.497 74.1882 112.991 73.2176 113.98 72.5294C114.986 71.8235 116.397 71.4705 118.215 71.4705C118.621 71.4705 119.088 71.4882 119.618 71.5235C120.147 71.5588 120.703 71.6205 121.286 71.7088V70.6499C121.286 67.9323 120.059 66.5735 117.606 66.5735C116.971 66.5735 116.291 66.6882 115.568 66.9176C114.862 67.1294 114.209 67.4382 113.609 67.8441C113.486 67.7382 113.371 67.5882 113.265 67.3941C113.159 67.1823 113.106 67.0058 113.106 66.8646C113.794 66.3882 114.527 66.0264 115.303 65.7794C116.097 65.5146 116.865 65.3823 117.606 65.3823C120.977 65.3823 122.662 67.1382 122.662 70.6499V77.6382H124.674C124.727 77.7617 124.753 77.8852 124.753 78.0088C124.753 78.1676 124.7 78.3352 124.594 78.5117ZM121.286 73.9058V72.847C120.721 72.7764 120.174 72.7235 119.644 72.6882C119.115 72.6352 118.638 72.6088 118.215 72.6088C116.821 72.6088 115.762 72.847 115.038 73.3235C114.315 73.7823 113.953 74.4705 113.953 75.3882C113.953 76.1646 114.2 76.7911 114.694 77.2676C115.206 77.7441 115.877 77.9823 116.706 77.9823C117.483 77.9823 118.215 77.7882 118.903 77.3999C119.609 77.0117 120.183 76.5088 120.624 75.8911C121.065 75.2735 121.286 74.6117 121.286 73.9058Z"/>
<path d="M132.759 74.9646V66.8117H130.747C130.694 66.6705 130.668 66.547 130.668 66.4411C130.668 66.2646 130.721 66.0882 130.827 65.9117L132.759 65.6735L133.182 62.8941C133.324 62.8588 133.491 62.8411 133.685 62.8411C133.809 62.8411 133.977 62.8588 134.188 62.8941V65.647H137.841C138.124 65.647 138.265 65.7705 138.265 66.0176C138.265 66.1235 138.229 66.3088 138.159 66.5735L138.106 66.8117H134.188V74.4352C134.188 75.2646 134.232 75.9352 134.321 76.447C134.427 76.9411 134.629 77.3029 134.929 77.5323C135.247 77.7617 135.732 77.8764 136.385 77.8764C136.703 77.8764 137.056 77.8499 137.444 77.797C137.85 77.7441 138.247 77.6646 138.635 77.5588C138.794 77.8411 138.891 78.1764 138.927 78.5646C138.556 78.7411 138.106 78.8823 137.577 78.9882C137.047 79.0941 136.518 79.147 135.988 79.147C134.947 79.147 134.144 78.847 133.579 78.247C133.032 77.647 132.759 76.5529 132.759 74.9646Z"/>
<path d="M151.172 78.8823H145.534C145.481 78.7411 145.454 78.6176 145.454 78.5117C145.454 78.3705 145.507 78.2029 145.613 78.0088L147.678 77.797V66.8911H145.534C145.481 66.7676 145.454 66.6441 145.454 66.5205C145.454 66.3617 145.507 66.1941 145.613 66.0176L148.366 65.5146C148.666 65.6735 148.913 65.8676 149.107 66.097V77.7441H150.907C151.19 77.7441 151.331 77.8676 151.331 78.1146C151.331 78.2205 151.296 78.4058 151.225 78.6705L151.172 78.8823ZM149.187 62.1529C149.187 62.4882 149.081 62.7617 148.869 62.9735C148.657 63.1676 148.366 63.2646 147.996 63.2646C147.625 63.2646 147.334 63.1676 147.122 62.9735C146.91 62.7617 146.804 62.4882 146.804 62.1529C146.804 61.8176 146.91 61.5529 147.122 61.3588C147.334 61.147 147.625 61.0411 147.996 61.0411C148.366 61.0411 148.657 61.147 148.869 61.3588C149.081 61.5529 149.187 61.8176 149.187 62.1529Z"/>
<path d="M164.439 77.9823C165.356 77.9823 166.159 77.7441 166.847 77.2676C167.553 76.7911 168.092 76.1205 168.462 75.2558C168.85 74.3911 169.044 73.3941 169.044 72.2646C169.044 71.1352 168.85 70.1382 168.462 69.2735C168.092 68.4088 167.553 67.7382 166.847 67.2617C166.159 66.7852 165.356 66.547 164.439 66.547C163.521 66.547 162.709 66.7852 162.003 67.2617C161.315 67.7382 160.777 68.4088 160.389 69.2735C160.018 70.1382 159.833 71.1352 159.833 72.2646C159.833 73.3941 160.018 74.3911 160.389 75.2558C160.777 76.1205 161.315 76.7911 162.003 77.2676C162.692 77.7441 163.503 77.9823 164.439 77.9823ZM164.439 79.147C163.203 79.147 162.127 78.8646 161.209 78.2999C160.309 77.7176 159.603 76.9146 159.092 75.8911C158.58 74.8499 158.324 73.6411 158.324 72.2646C158.324 70.8882 158.58 69.6882 159.092 68.6646C159.603 67.6235 160.309 66.8205 161.209 66.2558C162.127 65.6735 163.203 65.3823 164.439 65.3823C165.674 65.3823 166.742 65.6735 167.642 66.2558C168.559 66.8205 169.274 67.6235 169.786 68.6646C170.297 69.6882 170.553 70.8882 170.553 72.2646C170.553 73.6411 170.297 74.8499 169.786 75.8911C169.274 76.9146 168.559 77.7176 167.642 78.2999C166.742 78.8646 165.674 79.147 164.439 79.147Z"/>
<path d="M192.176 78.8823H187.067C187.014 78.7411 186.988 78.6176 186.988 78.5117C186.988 78.3705 187.041 78.2029 187.146 78.0088L188.946 77.797V70.2794C188.946 67.7911 187.896 66.547 185.796 66.547C184.967 66.547 184.199 66.7941 183.493 67.2882C182.805 67.7646 182.249 68.4088 181.826 69.2205C181.402 70.0146 181.191 70.8882 181.191 71.8411V77.7441H182.726C183.008 77.7441 183.149 77.8676 183.149 78.1146C183.149 78.2205 183.114 78.4058 183.043 78.6705L182.991 78.8823H177.882C177.829 78.7411 177.802 78.6176 177.802 78.5117C177.802 78.3705 177.855 78.2029 177.961 78.0088L179.761 77.797V66.8911H177.749C177.696 66.7676 177.67 66.6441 177.67 66.5205C177.67 66.3617 177.723 66.1941 177.829 66.0176L180.449 65.5146C180.749 65.6735 180.996 65.8676 181.191 66.097L181.005 68.7441C181.499 67.6676 182.179 66.8382 183.043 66.2558C183.908 65.6735 184.905 65.3823 186.035 65.3823C187.446 65.3823 188.523 65.8058 189.264 66.6529C190.005 67.4823 190.376 68.6911 190.376 70.2794V77.7441H191.911C192.193 77.7441 192.335 77.8676 192.335 78.1146C192.335 78.2205 192.299 78.4058 192.229 78.6705L192.176 78.8823Z"/>
</mask>
<path d="M45.3706 71.9735H36.4765V72.2646C36.4765 73.9764 36.9176 75.3441 37.8 76.3676C38.7 77.3735 39.9 77.8764 41.4 77.8764C42.0882 77.8764 42.7941 77.7794 43.5176 77.5852C44.2588 77.3911 44.8588 77.1705 45.3176 76.9235C45.4588 77.0646 45.5647 77.2235 45.6353 77.3999C45.7059 77.5588 45.75 77.7264 45.7676 77.9029C44.3029 78.7323 42.7676 79.147 41.1617 79.147C39.9265 79.147 38.85 78.8646 37.9323 78.2999C37.0147 77.7176 36.3 76.9146 35.7882 75.8911C35.2765 74.8499 35.0206 73.6411 35.0206 72.2646C35.0206 70.8705 35.2588 69.6617 35.7353 68.6382C36.2294 67.597 36.9265 66.7941 37.8265 66.2294C38.7265 65.6646 39.7853 65.3823 41.0029 65.3823C44.25 65.3823 45.8735 67.3146 45.8735 71.1794C45.7323 71.4794 45.5647 71.7441 45.3706 71.9735ZM36.5823 70.8352H44.4706C44.4706 67.9764 43.3147 66.547 41.0029 66.547C39.8382 66.547 38.8588 66.9352 38.0647 67.7117C37.2882 68.4882 36.7941 69.5294 36.5823 70.8352Z" fill="black"/>
<path d="M66.5483 78.5117L63.9277 79.0146C63.6277 78.8558 63.3806 78.6617 63.1865 78.4323L63.3718 75.8382C62.913 76.8441 62.2512 77.647 61.3865 78.247C60.5218 78.847 59.5689 79.147 58.5277 79.147C57.4865 79.147 56.5689 78.8646 55.7747 78.2999C54.9806 77.7176 54.3542 76.9235 53.8953 75.9176C53.4542 74.8941 53.2336 73.7205 53.2336 72.397C53.2336 70.9852 53.4895 69.7588 54.0012 68.7176C54.513 67.6588 55.2365 66.8382 56.1718 66.2558C57.1071 65.6735 58.2012 65.3823 59.4542 65.3823C60.8306 65.3823 62.0748 65.8411 63.1865 66.7588V62.3911H61.0424C60.9895 62.2676 60.963 62.1441 60.963 62.0205C60.963 61.8617 61.0159 61.6941 61.1218 61.5176L63.8748 61.0146C64.1747 61.1735 64.4218 61.3676 64.6159 61.597V77.6382H66.6277C66.6806 77.7617 66.7071 77.8852 66.7071 78.0088C66.7071 78.1676 66.6542 78.3352 66.5483 78.5117ZM63.1865 72.6882V68.1088C62.0042 67.0852 60.76 66.5735 59.4542 66.5735C58.0071 66.5735 56.86 67.0941 56.013 68.1352C55.1659 69.1764 54.7424 70.597 54.7424 72.397C54.7424 73.4911 54.91 74.4617 55.2453 75.3088C55.5806 76.1382 56.0395 76.7911 56.6218 77.2676C57.2042 77.7441 57.8836 77.9823 58.66 77.9823C59.4718 77.9823 60.2218 77.7441 60.91 77.2676C61.5983 76.7735 62.1453 76.1294 62.5512 75.3352C62.9748 74.5235 63.1865 73.6411 63.1865 72.6882Z" fill="black"/>
<path d="M87.616 78.5117L84.9954 79.0146C84.6954 78.8558 84.4483 78.6617 84.2542 78.4323L84.4395 75.7852C83.9454 76.8617 83.266 77.6911 82.4013 78.2735C81.5542 78.8558 80.5836 79.147 79.4895 79.147C78.166 79.147 77.1424 78.7235 76.4189 77.8764C75.6954 77.0294 75.3336 75.8205 75.3336 74.2499V66.8911H73.3219C73.2689 66.7676 73.2424 66.6441 73.2424 66.5205C73.2424 66.3617 73.2954 66.1941 73.4013 66.0176L76.0219 65.5146C76.3219 65.6735 76.5689 65.8676 76.763 66.097V74.2499C76.763 75.4323 77.0189 76.3499 77.5307 77.0029C78.0424 77.6558 78.7571 77.9823 79.6748 77.9823C80.4866 77.9823 81.2366 77.7441 81.9248 77.2676C82.6307 76.7735 83.1954 76.1294 83.6189 75.3352C84.0424 74.5235 84.2542 73.6411 84.2542 72.6882V66.8911H82.2424C82.1895 66.7676 82.163 66.6441 82.163 66.5205C82.163 66.3617 82.216 66.1941 82.3219 66.0176L84.9424 65.5146C85.2424 65.6735 85.4895 65.8676 85.6836 66.097V77.6382H87.6954C87.7483 77.7617 87.7748 77.8852 87.7748 78.0088C87.7748 78.1676 87.7219 78.3352 87.616 78.5117Z" fill="black"/>
<path d="M104.251 69.8294L103.642 67.0235C102.884 66.7235 102.01 66.5735 101.022 66.5735C100.104 66.5735 99.3013 66.8205 98.6131 67.3146C97.9248 67.7911 97.3866 68.4529 96.9983 69.2999C96.6101 70.147 96.416 71.1352 96.416 72.2646C96.416 73.9941 96.8572 75.3617 97.7395 76.3676C98.6219 77.3735 99.8042 77.8764 101.287 77.8764C101.904 77.8764 102.548 77.8058 103.219 77.6646C103.89 77.5235 104.454 77.3294 104.913 77.0823C105.037 77.2235 105.134 77.3823 105.204 77.5588C105.275 77.7176 105.328 77.8852 105.363 78.0617C104.728 78.397 104.04 78.6617 103.298 78.8558C102.557 79.0499 101.807 79.147 101.048 79.147C99.813 79.147 98.7366 78.8646 97.8189 78.2999C96.9013 77.7176 96.1866 76.9146 95.6748 75.8911C95.1631 74.8499 94.9072 73.6411 94.9072 72.2646C94.9072 70.8882 95.1631 69.6882 95.6748 68.6646C96.1866 67.6235 96.8925 66.8205 97.7925 66.2558C98.7101 65.6735 99.7866 65.3823 101.022 65.3823C101.622 65.3823 102.257 65.4529 102.928 65.5941C103.598 65.7176 104.154 65.8852 104.595 66.097C104.79 66.3264 104.957 66.5911 105.098 66.8911L105.151 69.9088C105.01 69.9617 104.878 69.9882 104.754 69.9882C104.578 69.9882 104.41 69.9352 104.251 69.8294Z" fill="black"/>
<path d="M124.594 78.5117L121.974 79.0146C121.674 78.8558 121.427 78.6617 121.233 78.4323L121.365 76.5264C120.8 77.3558 120.103 77.9999 119.274 78.4588C118.462 78.9176 117.562 79.147 116.574 79.147C115.356 79.147 114.368 78.8029 113.609 78.1146C112.868 77.4264 112.497 76.5352 112.497 75.4411C112.497 74.1882 112.991 73.2176 113.98 72.5294C114.986 71.8235 116.397 71.4705 118.215 71.4705C118.621 71.4705 119.088 71.4882 119.618 71.5235C120.147 71.5588 120.703 71.6205 121.286 71.7088V70.6499C121.286 67.9323 120.059 66.5735 117.606 66.5735C116.971 66.5735 116.291 66.6882 115.568 66.9176C114.862 67.1294 114.209 67.4382 113.609 67.8441C113.486 67.7382 113.371 67.5882 113.265 67.3941C113.159 67.1823 113.106 67.0058 113.106 66.8646C113.794 66.3882 114.527 66.0264 115.303 65.7794C116.097 65.5146 116.865 65.3823 117.606 65.3823C120.977 65.3823 122.662 67.1382 122.662 70.6499V77.6382H124.674C124.727 77.7617 124.753 77.8852 124.753 78.0088C124.753 78.1676 124.7 78.3352 124.594 78.5117ZM121.286 73.9058V72.847C120.721 72.7764 120.174 72.7235 119.644 72.6882C119.115 72.6352 118.638 72.6088 118.215 72.6088C116.821 72.6088 115.762 72.847 115.038 73.3235C114.315 73.7823 113.953 74.4705 113.953 75.3882C113.953 76.1646 114.2 76.7911 114.694 77.2676C115.206 77.7441 115.877 77.9823 116.706 77.9823C117.483 77.9823 118.215 77.7882 118.903 77.3999C119.609 77.0117 120.183 76.5088 120.624 75.8911C121.065 75.2735 121.286 74.6117 121.286 73.9058Z" fill="black"/>
<path d="M132.759 74.9646V66.8117H130.747C130.694 66.6705 130.668 66.547 130.668 66.4411C130.668 66.2646 130.721 66.0882 130.827 65.9117L132.759 65.6735L133.182 62.8941C133.324 62.8588 133.491 62.8411 133.685 62.8411C133.809 62.8411 133.977 62.8588 134.188 62.8941V65.647H137.841C138.124 65.647 138.265 65.7705 138.265 66.0176C138.265 66.1235 138.229 66.3088 138.159 66.5735L138.106 66.8117H134.188V74.4352C134.188 75.2646 134.232 75.9352 134.321 76.447C134.427 76.9411 134.629 77.3029 134.929 77.5323C135.247 77.7617 135.732 77.8764 136.385 77.8764C136.703 77.8764 137.056 77.8499 137.444 77.797C137.85 77.7441 138.247 77.6646 138.635 77.5588C138.794 77.8411 138.891 78.1764 138.927 78.5646C138.556 78.7411 138.106 78.8823 137.577 78.9882C137.047 79.0941 136.518 79.147 135.988 79.147C134.947 79.147 134.144 78.847 133.579 78.247C133.032 77.647 132.759 76.5529 132.759 74.9646Z" fill="black"/>
<path d="M151.172 78.8823H145.534C145.481 78.7411 145.454 78.6176 145.454 78.5117C145.454 78.3705 145.507 78.2029 145.613 78.0088L147.678 77.797V66.8911H145.534C145.481 66.7676 145.454 66.6441 145.454 66.5205C145.454 66.3617 145.507 66.1941 145.613 66.0176L148.366 65.5146C148.666 65.6735 148.913 65.8676 149.107 66.097V77.7441H150.907C151.19 77.7441 151.331 77.8676 151.331 78.1146C151.331 78.2205 151.296 78.4058 151.225 78.6705L151.172 78.8823ZM149.187 62.1529C149.187 62.4882 149.081 62.7617 148.869 62.9735C148.657 63.1676 148.366 63.2646 147.996 63.2646C147.625 63.2646 147.334 63.1676 147.122 62.9735C146.91 62.7617 146.804 62.4882 146.804 62.1529C146.804 61.8176 146.91 61.5529 147.122 61.3588C147.334 61.147 147.625 61.0411 147.996 61.0411C148.366 61.0411 148.657 61.147 148.869 61.3588C149.081 61.5529 149.187 61.8176 149.187 62.1529Z" fill="black"/>
<path d="M164.439 77.9823C165.356 77.9823 166.159 77.7441 166.847 77.2676C167.553 76.7911 168.092 76.1205 168.462 75.2558C168.85 74.3911 169.044 73.3941 169.044 72.2646C169.044 71.1352 168.85 70.1382 168.462 69.2735C168.092 68.4088 167.553 67.7382 166.847 67.2617C166.159 66.7852 165.356 66.547 164.439 66.547C163.521 66.547 162.709 66.7852 162.003 67.2617C161.315 67.7382 160.777 68.4088 160.389 69.2735C160.018 70.1382 159.833 71.1352 159.833 72.2646C159.833 73.3941 160.018 74.3911 160.389 75.2558C160.777 76.1205 161.315 76.7911 162.003 77.2676C162.692 77.7441 163.503 77.9823 164.439 77.9823ZM164.439 79.147C163.203 79.147 162.127 78.8646 161.209 78.2999C160.309 77.7176 159.603 76.9146 159.092 75.8911C158.58 74.8499 158.324 73.6411 158.324 72.2646C158.324 70.8882 158.58 69.6882 159.092 68.6646C159.603 67.6235 160.309 66.8205 161.209 66.2558C162.127 65.6735 163.203 65.3823 164.439 65.3823C165.674 65.3823 166.742 65.6735 167.642 66.2558C168.559 66.8205 169.274 67.6235 169.786 68.6646C170.297 69.6882 170.553 70.8882 170.553 72.2646C170.553 73.6411 170.297 74.8499 169.786 75.8911C169.274 76.9146 168.559 77.7176 167.642 78.2999C166.742 78.8646 165.674 79.147 164.439 79.147Z" fill="black"/>
<path d="M192.176 78.8823H187.067C187.014 78.7411 186.988 78.6176 186.988 78.5117C186.988 78.3705 187.041 78.2029 187.146 78.0088L188.946 77.797V70.2794C188.946 67.7911 187.896 66.547 185.796 66.547C184.967 66.547 184.199 66.7941 183.493 67.2882C182.805 67.7646 182.249 68.4088 181.826 69.2205C181.402 70.0146 181.191 70.8882 181.191 71.8411V77.7441H182.726C183.008 77.7441 183.149 77.8676 183.149 78.1146C183.149 78.2205 183.114 78.4058 183.043 78.6705L182.991 78.8823H177.882C177.829 78.7411 177.802 78.6176 177.802 78.5117C177.802 78.3705 177.855 78.2029 177.961 78.0088L179.761 77.797V66.8911H177.749C177.696 66.7676 177.67 66.6441 177.67 66.5205C177.67 66.3617 177.723 66.1941 177.829 66.0176L180.449 65.5146C180.749 65.6735 180.996 65.8676 181.191 66.097L181.005 68.7441C181.499 67.6676 182.179 66.8382 183.043 66.2558C183.908 65.6735 184.905 65.3823 186.035 65.3823C187.446 65.3823 188.523 65.8058 189.264 66.6529C190.005 67.4823 190.376 68.6911 190.376 70.2794V77.7441H191.911C192.193 77.7441 192.335 77.8676 192.335 78.1146C192.335 78.2205 192.299 78.4058 192.229 78.6705L192.176 78.8823Z" fill="black"/>
<path d="M45.3706 71.9735H36.4765V72.2646C36.4765 73.9764 36.9176 75.3441 37.8 76.3676C38.7 77.3735 39.9 77.8764 41.4 77.8764C42.0882 77.8764 42.7941 77.7794 43.5176 77.5852C44.2588 77.3911 44.8588 77.1705 45.3176 76.9235C45.4588 77.0646 45.5647 77.2235 45.6353 77.3999C45.7059 77.5588 45.75 77.7264 45.7676 77.9029C44.3029 78.7323 42.7676 79.147 41.1617 79.147C39.9265 79.147 38.85 78.8646 37.9323 78.2999C37.0147 77.7176 36.3 76.9146 35.7882 75.8911C35.2765 74.8499 35.0206 73.6411 35.0206 72.2646C35.0206 70.8705 35.2588 69.6617 35.7353 68.6382C36.2294 67.597 36.9265 66.7941 37.8265 66.2294C38.7265 65.6646 39.7853 65.3823 41.0029 65.3823C44.25 65.3823 45.8735 67.3146 45.8735 71.1794C45.7323 71.4794 45.5647 71.7441 45.3706 71.9735ZM36.5823 70.8352H44.4706C44.4706 67.9764 43.3147 66.547 41.0029 66.547C39.8382 66.547 38.8588 66.9352 38.0647 67.7117C37.2882 68.4882 36.7941 69.5294 36.5823 70.8352Z" stroke="black" stroke-width="0.4" mask="url(#path-6-outside-1)"/>
<path d="M66.5483 78.5117L63.9277 79.0146C63.6277 78.8558 63.3806 78.6617 63.1865 78.4323L63.3718 75.8382C62.913 76.8441 62.2512 77.647 61.3865 78.247C60.5218 78.847 59.5689 79.147 58.5277 79.147C57.4865 79.147 56.5689 78.8646 55.7747 78.2999C54.9806 77.7176 54.3542 76.9235 53.8953 75.9176C53.4542 74.8941 53.2336 73.7205 53.2336 72.397C53.2336 70.9852 53.4895 69.7588 54.0012 68.7176C54.513 67.6588 55.2365 66.8382 56.1718 66.2558C57.1071 65.6735 58.2012 65.3823 59.4542 65.3823C60.8306 65.3823 62.0748 65.8411 63.1865 66.7588V62.3911H61.0424C60.9895 62.2676 60.963 62.1441 60.963 62.0205C60.963 61.8617 61.0159 61.6941 61.1218 61.5176L63.8748 61.0146C64.1747 61.1735 64.4218 61.3676 64.6159 61.597V77.6382H66.6277C66.6806 77.7617 66.7071 77.8852 66.7071 78.0088C66.7071 78.1676 66.6542 78.3352 66.5483 78.5117ZM63.1865 72.6882V68.1088C62.0042 67.0852 60.76 66.5735 59.4542 66.5735C58.0071 66.5735 56.86 67.0941 56.013 68.1352C55.1659 69.1764 54.7424 70.597 54.7424 72.397C54.7424 73.4911 54.91 74.4617 55.2453 75.3088C55.5806 76.1382 56.0395 76.7911 56.6218 77.2676C57.2042 77.7441 57.8836 77.9823 58.66 77.9823C59.4718 77.9823 60.2218 77.7441 60.91 77.2676C61.5983 76.7735 62.1453 76.1294 62.5512 75.3352C62.9748 74.5235 63.1865 73.6411 63.1865 72.6882Z" stroke="black" stroke-width="0.4" mask="url(#path-6-outside-1)"/>
<path d="M87.616 78.5117L84.9954 79.0146C84.6954 78.8558 84.4483 78.6617 84.2542 78.4323L84.4395 75.7852C83.9454 76.8617 83.266 77.6911 82.4013 78.2735C81.5542 78.8558 80.5836 79.147 79.4895 79.147C78.166 79.147 77.1424 78.7235 76.4189 77.8764C75.6954 77.0294 75.3336 75.8205 75.3336 74.2499V66.8911H73.3219C73.2689 66.7676 73.2424 66.6441 73.2424 66.5205C73.2424 66.3617 73.2954 66.1941 73.4013 66.0176L76.0219 65.5146C76.3219 65.6735 76.5689 65.8676 76.763 66.097V74.2499C76.763 75.4323 77.0189 76.3499 77.5307 77.0029C78.0424 77.6558 78.7571 77.9823 79.6748 77.9823C80.4866 77.9823 81.2366 77.7441 81.9248 77.2676C82.6307 76.7735 83.1954 76.1294 83.6189 75.3352C84.0424 74.5235 84.2542 73.6411 84.2542 72.6882V66.8911H82.2424C82.1895 66.7676 82.163 66.6441 82.163 66.5205C82.163 66.3617 82.216 66.1941 82.3219 66.0176L84.9424 65.5146C85.2424 65.6735 85.4895 65.8676 85.6836 66.097V77.6382H87.6954C87.7483 77.7617 87.7748 77.8852 87.7748 78.0088C87.7748 78.1676 87.7219 78.3352 87.616 78.5117Z" stroke="black" stroke-width="0.4" mask="url(#path-6-outside-1)"/>
<path d="M104.251 69.8294L103.642 67.0235C102.884 66.7235 102.01 66.5735 101.022 66.5735C100.104 66.5735 99.3013 66.8205 98.6131 67.3146C97.9248 67.7911 97.3866 68.4529 96.9983 69.2999C96.6101 70.147 96.416 71.1352 96.416 72.2646C96.416 73.9941 96.8572 75.3617 97.7395 76.3676C98.6219 77.3735 99.8042 77.8764 101.287 77.8764C101.904 77.8764 102.548 77.8058 103.219 77.6646C103.89 77.5235 104.454 77.3294 104.913 77.0823C105.037 77.2235 105.134 77.3823 105.204 77.5588C105.275 77.7176 105.328 77.8852 105.363 78.0617C104.728 78.397 104.04 78.6617 103.298 78.8558C102.557 79.0499 101.807 79.147 101.048 79.147C99.813 79.147 98.7366 78.8646 97.8189 78.2999C96.9013 77.7176 96.1866 76.9146 95.6748 75.8911C95.1631 74.8499 94.9072 73.6411 94.9072 72.2646C94.9072 70.8882 95.1631 69.6882 95.6748 68.6646C96.1866 67.6235 96.8925 66.8205 97.7925 66.2558C98.7101 65.6735 99.7866 65.3823 101.022 65.3823C101.622 65.3823 102.257 65.4529 102.928 65.5941C103.598 65.7176 104.154 65.8852 104.595 66.097C104.79 66.3264 104.957 66.5911 105.098 66.8911L105.151 69.9088C105.01 69.9617 104.878 69.9882 104.754 69.9882C104.578 69.9882 104.41 69.9352 104.251 69.8294Z" stroke="black" stroke-width="0.4" mask="url(#path-6-outside-1)"/>
<path d="M124.594 78.5117L121.974 79.0146C121.674 78.8558 121.427 78.6617 121.233 78.4323L121.365 76.5264C120.8 77.3558 120.103 77.9999 119.274 78.4588C118.462 78.9176 117.562 79.147 116.574 79.147C115.356 79.147 114.368 78.8029 113.609 78.1146C112.868 77.4264 112.497 76.5352 112.497 75.4411C112.497 74.1882 112.991 73.2176 113.98 72.5294C114.986 71.8235 116.397 71.4705 118.215 71.4705C118.621 71.4705 119.088 71.4882 119.618 71.5235C120.147 71.5588 120.703 71.6205 121.286 71.7088V70.6499C121.286 67.9323 120.059 66.5735 117.606 66.5735C116.971 66.5735 116.291 66.6882 115.568 66.9176C114.862 67.1294 114.209 67.4382 113.609 67.8441C113.486 67.7382 113.371 67.5882 113.265 67.3941C113.159 67.1823 113.106 67.0058 113.106 66.8646C113.794 66.3882 114.527 66.0264 115.303 65.7794C116.097 65.5146 116.865 65.3823 117.606 65.3823C120.977 65.3823 122.662 67.1382 122.662 70.6499V77.6382H124.674C124.727 77.7617 124.753 77.8852 124.753 78.0088C124.753 78.1676 124.7 78.3352 124.594 78.5117ZM121.286 73.9058V72.847C120.721 72.7764 120.174 72.7235 119.644 72.6882C119.115 72.6352 118.638 72.6088 118.215 72.6088C116.821 72.6088 115.762 72.847 115.038 73.3235C114.315 73.7823 113.953 74.4705 113.953 75.3882C113.953 76.1646 114.2 76.7911 114.694 77.2676C115.206 77.7441 115.877 77.9823 116.706 77.9823C117.483 77.9823 118.215 77.7882 118.903 77.3999C119.609 77.0117 120.183 76.5088 120.624 75.8911C121.065 75.2735 121.286 74.6117 121.286 73.9058Z" stroke="black" stroke-width="0.4" mask="url(#path-6-outside-1)"/>
<path d="M132.759 74.9646V66.8117H130.747C130.694 66.6705 130.668 66.547 130.668 66.4411C130.668 66.2646 130.721 66.0882 130.827 65.9117L132.759 65.6735L133.182 62.8941C133.324 62.8588 133.491 62.8411 133.685 62.8411C133.809 62.8411 133.977 62.8588 134.188 62.8941V65.647H137.841C138.124 65.647 138.265 65.7705 138.265 66.0176C138.265 66.1235 138.229 66.3088 138.159 66.5735L138.106 66.8117H134.188V74.4352C134.188 75.2646 134.232 75.9352 134.321 76.447C134.427 76.9411 134.629 77.3029 134.929 77.5323C135.247 77.7617 135.732 77.8764 136.385 77.8764C136.703 77.8764 137.056 77.8499 137.444 77.797C137.85 77.7441 138.247 77.6646 138.635 77.5588C138.794 77.8411 138.891 78.1764 138.927 78.5646C138.556 78.7411 138.106 78.8823 137.577 78.9882C137.047 79.0941 136.518 79.147 135.988 79.147C134.947 79.147 134.144 78.847 133.579 78.247C133.032 77.647 132.759 76.5529 132.759 74.9646Z" stroke="black" stroke-width="0.4" mask="url(#path-6-outside-1)"/>
<path d="M151.172 78.8823H145.534C145.481 78.7411 145.454 78.6176 145.454 78.5117C145.454 78.3705 145.507 78.2029 145.613 78.0088L147.678 77.797V66.8911H145.534C145.481 66.7676 145.454 66.6441 145.454 66.5205C145.454 66.3617 145.507 66.1941 145.613 66.0176L148.366 65.5146C148.666 65.6735 148.913 65.8676 149.107 66.097V77.7441H150.907C151.19 77.7441 151.331 77.8676 151.331 78.1146C151.331 78.2205 151.296 78.4058 151.225 78.6705L151.172 78.8823ZM149.187 62.1529C149.187 62.4882 149.081 62.7617 148.869 62.9735C148.657 63.1676 148.366 63.2646 147.996 63.2646C147.625 63.2646 147.334 63.1676 147.122 62.9735C146.91 62.7617 146.804 62.4882 146.804 62.1529C146.804 61.8176 146.91 61.5529 147.122 61.3588C147.334 61.147 147.625 61.0411 147.996 61.0411C148.366 61.0411 148.657 61.147 148.869 61.3588C149.081 61.5529 149.187 61.8176 149.187 62.1529Z" stroke="black" stroke-width="0.4" mask="url(#path-6-outside-1)"/>
<path d="M164.439 77.9823C165.356 77.9823 166.159 77.7441 166.847 77.2676C167.553 76.7911 168.092 76.1205 168.462 75.2558C168.85 74.3911 169.044 73.3941 169.044 72.2646C169.044 71.1352 168.85 70.1382 168.462 69.2735C168.092 68.4088 167.553 67.7382 166.847 67.2617C166.159 66.7852 165.356 66.547 164.439 66.547C163.521 66.547 162.709 66.7852 162.003 67.2617C161.315 67.7382 160.777 68.4088 160.389 69.2735C160.018 70.1382 159.833 71.1352 159.833 72.2646C159.833 73.3941 160.018 74.3911 160.389 75.2558C160.777 76.1205 161.315 76.7911 162.003 77.2676C162.692 77.7441 163.503 77.9823 164.439 77.9823ZM164.439 79.147C163.203 79.147 162.127 78.8646 161.209 78.2999C160.309 77.7176 159.603 76.9146 159.092 75.8911C158.58 74.8499 158.324 73.6411 158.324 72.2646C158.324 70.8882 158.58 69.6882 159.092 68.6646C159.603 67.6235 160.309 66.8205 161.209 66.2558C162.127 65.6735 163.203 65.3823 164.439 65.3823C165.674 65.3823 166.742 65.6735 167.642 66.2558C168.559 66.8205 169.274 67.6235 169.786 68.6646C170.297 69.6882 170.553 70.8882 170.553 72.2646C170.553 73.6411 170.297 74.8499 169.786 75.8911C169.274 76.9146 168.559 77.7176 167.642 78.2999C166.742 78.8646 165.674 79.147 164.439 79.147Z" stroke="black" stroke-width="0.4" mask="url(#path-6-outside-1)"/>
<path d="M192.176 78.8823H187.067C187.014 78.7411 186.988 78.6176 186.988 78.5117C186.988 78.3705 187.041 78.2029 187.146 78.0088L188.946 77.797V70.2794C188.946 67.7911 187.896 66.547 185.796 66.547C184.967 66.547 184.199 66.7941 183.493 67.2882C182.805 67.7646 182.249 68.4088 181.826 69.2205C181.402 70.0146 181.191 70.8882 181.191 71.8411V77.7441H182.726C183.008 77.7441 183.149 77.8676 183.149 78.1146C183.149 78.2205 183.114 78.4058 183.043 78.6705L182.991 78.8823H177.882C177.829 78.7411 177.802 78.6176 177.802 78.5117C177.802 78.3705 177.855 78.2029 177.961 78.0088L179.761 77.797V66.8911H177.749C177.696 66.7676 177.67 66.6441 177.67 66.5205C177.67 66.3617 177.723 66.1941 177.829 66.0176L180.449 65.5146C180.749 65.6735 180.996 65.8676 181.191 66.097L181.005 68.7441C181.499 67.6676 182.179 66.8382 183.043 66.2558C183.908 65.6735 184.905 65.3823 186.035 65.3823C187.446 65.3823 188.523 65.8058 189.264 66.6529C190.005 67.4823 190.376 68.6911 190.376 70.2794V77.7441H191.911C192.193 77.7441 192.335 77.8676 192.335 78.1146C192.335 78.2205 192.299 78.4058 192.229 78.6705L192.176 78.8823Z" stroke="black" stroke-width="0.4" mask="url(#path-6-outside-1)"/>
<path d="M5.51111 66.1324C5.10553 66.9276 4.80731 67.6944 4.61645 68.4329C4.42559 69.1713 4.33016 69.8955 4.33016 70.6055C4.33016 71.7415 4.56873 72.7497 5.04589 73.6301C5.52304 74.5105 6.19105 75.2489 7.04993 75.8453C7.9088 76.4418 8.92275 76.882 10.0918 77.166C11.2847 77.4784 12.5849 77.6346 13.9925 77.6346C15.925 77.6346 17.6427 77.3648 19.1457 76.8252C20.6726 76.2856 21.9609 75.5329 23.0107 74.5673C24.0604 73.6017 24.8596 72.4799 25.4084 71.2019C25.9571 69.9239 26.2315 68.5323 26.2315 67.027C26.2315 65.8058 26.0406 64.8118 25.6589 64.045C25.301 63.2782 24.7881 62.6818 24.1201 62.2558C23.452 61.8298 22.6528 61.5316 21.7224 61.3612C20.8158 61.2192 19.8138 61.1482 18.7163 61.1482C17.929 61.1482 17.0463 61.1482 16.0681 61.1482C15.0899 61.1766 14.1476 61.205 13.241 61.2334C12.3344 61.2618 11.5232 61.276 10.8075 61.276C10.0918 61.3044 9.59076 61.3186 9.30447 61.3186C7.94459 61.3186 6.76363 61.1198 5.76161 60.7222C4.78345 60.3246 3.96036 59.7707 3.29235 59.0607C2.62434 58.3507 2.12333 57.5129 1.78932 56.5473C1.47917 55.5817 1.3241 54.5451 1.3241 53.4375C1.3241 51.9039 1.61039 50.3134 2.18297 48.6662C2.75555 47.019 3.686 45.3434 4.97431 43.6393C3.97229 42.3613 3.20885 40.8987 2.68398 39.2515C2.15911 37.5759 1.89668 35.8008 1.89668 33.9264C1.89668 31.9668 2.18297 30.1208 2.75555 28.3884C3.32814 26.6275 4.15123 25.0939 5.22482 23.7875C6.32227 22.4527 7.6583 21.4019 9.2329 20.6351C10.8314 19.8682 12.6445 19.4848 14.6724 19.4848C16.5333 19.4848 18.1914 19.8114 19.6467 20.4647C21.1021 21.1179 22.3546 22.0125 23.4043 23.1485C24.0723 22.3249 24.7165 21.6433 25.3368 21.1037C25.9809 20.5641 26.5774 20.1523 27.1261 19.8682C27.6748 19.5558 28.1878 19.3428 28.6649 19.2292C29.1421 19.1156 29.5715 19.0588 29.9532 19.0588C30.5497 19.0588 31.0626 19.1724 31.4921 19.3996C31.9215 19.5984 32.2674 19.8824 32.5299 20.2517C32.8162 20.5925 33.0189 20.9901 33.1382 21.4445C33.2814 21.8705 33.353 22.3107 33.353 22.7651C33.353 23.6739 33.1024 24.4975 32.6014 25.2359C32.1243 25.9459 31.4443 26.3009 30.5616 26.3009C29.8697 26.3009 29.2137 26.0311 28.5934 25.4915C27.9969 24.9519 27.6033 24.1567 27.4124 23.1059C26.9353 23.3331 26.482 23.6171 26.0525 23.9579C25.6469 24.2703 25.2414 24.6395 24.8358 25.0655C25.5515 26.2583 26.0883 27.5647 26.4462 28.9848C26.8279 30.4048 27.0188 31.8958 27.0188 33.4578C27.0188 35.4174 26.7325 37.2777 26.1599 39.0385C25.5873 40.7993 24.7523 42.3471 23.6548 43.6819C22.5574 44.9884 21.2214 46.025 19.6467 46.7918C18.0721 47.5586 16.2709 47.942 14.243 47.942C12.8115 47.942 11.4994 47.7432 10.3065 47.3456C9.11361 46.948 8.04002 46.3942 7.08571 45.6842C6.48927 46.6214 6.02405 47.516 5.69004 48.368C5.37989 49.1916 5.22482 49.9726 5.22482 50.711C5.22482 51.6198 5.55883 52.3725 6.22684 52.9689C6.91871 53.5653 8.08773 53.8635 9.73391 53.8635C9.99634 53.8635 10.5331 53.8635 11.3443 53.8635C12.1793 53.8351 13.0978 53.8209 14.0999 53.8209C15.1019 53.7925 16.08 53.7783 17.0343 53.7783C18.0125 53.7499 18.764 53.7357 19.2889 53.7357C20.9828 53.7357 22.5335 53.9203 23.9411 54.2895C25.3726 54.6303 26.5893 55.2267 27.5913 56.0787C28.6172 56.9307 29.4164 58.0525 29.989 59.4441C30.5616 60.8358 30.8479 62.5682 30.8479 64.6414C30.8479 67.169 30.4185 69.4411 29.5596 71.4575C28.7007 73.4739 27.4959 75.1921 25.9452 76.6122C24.4183 78.0322 22.5932 79.1114 20.4698 79.8498C18.3704 80.6166 16.0681 81 13.5631 81C11.3682 81 9.42376 80.716 7.72987 80.148C6.05983 79.6084 4.65224 78.8842 3.50707 77.9754C2.3619 77.0666 1.4911 76.0158 0.894661 74.8229C0.29822 73.6585 0 72.4373 0 71.1593C0 69.9381 0.262434 68.7595 0.787301 67.6234C1.33603 66.4874 2.15911 65.4224 3.25656 64.4284C3.70986 64.6556 4.10351 64.897 4.43752 65.1526C4.77152 65.4366 5.12939 65.7632 5.51111 66.1324ZM20.3983 33.543C20.3983 31.5266 20.3028 29.8226 20.112 28.431C19.945 27.0109 19.6348 25.8749 19.1815 25.0229C18.7521 24.1425 18.1556 23.5035 17.3922 23.1059C16.6526 22.7083 15.6983 22.5095 14.5293 22.5095C13.3603 22.5095 12.394 22.7083 11.6306 23.1059C10.8671 23.5035 10.2468 24.1567 9.7697 25.0655C9.3164 25.9459 8.99432 27.1103 8.80346 28.5588C8.6126 30.0072 8.51717 31.768 8.51717 33.8412C8.51717 35.886 8.60067 37.6185 8.76767 39.0385C8.95854 40.4301 9.28061 41.5661 9.73391 42.4465C10.1872 43.3269 10.7836 43.966 11.5232 44.3636C12.2867 44.7328 13.241 44.9174 14.3861 44.9174C15.5552 44.9174 16.5214 44.7186 17.2848 44.321C18.0721 43.9233 18.6924 43.2701 19.1457 42.3613C19.599 41.4525 19.9211 40.2881 20.112 38.8681C20.3028 37.4197 20.3983 35.6446 20.3983 33.543Z" fill="#047B04"/>
</svg>
